<?xml version="1.0" standalone="no"?><!DOCTYPE svg PUBLIC "-//W3C//DTD SVG 1.1//EN" "http://www.w3.org/Graphics/SVG/1.1/DTD/svg11.dtd"><svg t="1564657540900" class="icon" viewBox="0 0 1180 1024" version="1.1" xmlns="http://www.w3.org/2000/svg" p-id="5399" xmlns:xlink="http://www.w3.org/1999/xlink" width="230.46875" height="200"><defs><style type="text/css"></style></defs><path d="M983.232847 765.302992l184.043826 184.475348c17.045091 16.182048 17.045091 43.367889 0.647282 59.765697-16.397809 17.045091-43.79941 17.692373-60.197219 0.647282l-185.122629-184.906869c-83.930889 69.690687-189.437842 107.88032-298.396966 108.096081-136.792246-0.215761-266.680152-60.62874-354.926254-165.272651-44.662453-52.214075 23.086389-101.19174 74.0059-44.878213 69.906448 76.595027 168.2933 121.473241 272.074168 124.062368 103.780868 2.589128 204.109566-37.542351 277.899705-110.685208l0.647282-0.647282c35.384745-35.600506 63.649389-77.673831 82.852086-123.846608 37.973873-92.561315 38.189633-196.342183 0.647282-289.119258l-0.647282-1.726085c-18.771176-45.525495-46.172777-86.735777-80.69448-121.689002l-2.157606-2.157606c-35.600506-34.953224-77.45807-63.433628-123.846608-82.420565-44.230931-19.202697-93.855879-29.127686-145.638432-29.127686-155.131901 0-288.687737 94.718921-347.590392 227.411715-6.90434 15.534766-22.223346 25.459756-39.268437 25.243995h-0.21576c-15.103245 0-27.617362-7.335862-35.816267-19.418458-8.198904-12.514117-9.061947-27.185841-3.020649-40.994521C271.438494 113.274336 439.084511 0.215761 623.99138 0.215761c123.630847 0.215761 242.299199 49.409187 330.11378 136.576485l2.373367 2.157607c42.073325 42.936367 75.516224 93.640118 98.602613 149.090602l0.863043 2.373367c46.604298 113.490097 46.172777 240.788875-0.863043 354.063211-17.692373 43.79941-41.857564 84.36241-71.848293 120.825959zM25.471364 586.0059c-6.90434 0-13.37716-2.589128-18.123894-7.551623-4.746734-4.746734-7.551622-11.435314-7.335862-18.339654 0-14.024442 11.435314-25.675516 25.459756-25.675516h188.79056l113.058576-190.300885c4.530973-7.767383 12.729878-12.729878 21.791824-12.729878 9.061947-0.215761 17.476612 4.530973 22.007586 12.298356l109.822166 176.492204 54.587442-57.608091c9.924989-10.14075 26.107038-10.356511 36.463548-0.647282 2.157606 2.373367 4.099452 4.962495 5.394016 7.983144l63.649389 128.377581 78.752634-333.134429c1.510324-6.68858 5.825537-12.514117 11.651074-15.966287 5.825537-3.45217 12.945638-4.530973 19.634219-2.804889 4.530973 1.078803 8.630426 3.45217 11.866835 6.68858l116.294985 117.80531c9.709229 9.709229 9.709229 26.107038-0.215761 36.463548-10.356511 9.493468-26.322798 9.277708-36.463548-0.647282l-83.499368-84.36241-84.793931 356.868099c-1.510324 7.551622-6.68858 13.808681-13.592921 16.61357-5.825537 3.23641-12.945638 4.099452-19.418457 1.941846-6.472819-2.157606-11.651075-6.68858-14.671724-12.945639l-78.968394-160.094395-51.566793 53.94016c-1.510324 2.157606-3.667931 3.883692-6.041298 4.962495-5.609777 3.667931-12.729878 4.746734-19.202697 3.45217-6.68858-1.510324-12.298357-5.609777-15.966288-11.219553l-105.075432-168.509061-98.386852 165.05689c-4.315213 8.414665-12.945638 13.808681-22.439106 13.592921H25.471364z m0 0" p-id="5400"></path><path d="M594.863694 203.678045c9.709229 8.846186 14.455963 20.2815 14.455963 34.090181 0 13.37716-5.178255 25.891277-15.534766 37.542351-6.257059 6.472819-17.260851 14.887484-32.795618 25.459756-5.825537 3.883692-11.003793 7.551622-15.103245 11.219553-7.551622 6.472819-3.020649 18.771176 6.904341 18.771176h46.172777c5.825537 0 10.572271 4.746734 10.572271 10.572271s-4.746734 10.572271-10.572271 10.572272h-86.951538c-6.68858 0-11.866835-6.041298-10.572271-12.514117 2.157606-10.788032 6.90434-20.2815 14.671723-28.911926 5.394016-6.472819 17.476612-16.182048 35.816266-28.911926 10.788032-7.767383 18.339654-13.808681 22.654868-18.123894 7.335862-8.198904 10.788032-16.82933 10.788032-25.891277 0-8.846186-2.373367-15.534766-7.335862-20.065739-4.962495-4.530973-12.082596-6.68858-21.576064-6.68858-10.14075 0-17.692373 3.45217-22.654867 10.14075-3.883692 4.962495-6.472819 11.651075-7.767383 20.065739-0.863043 5.178255-5.394016 9.061947-10.788032 9.061947h-2.589128c-6.68858 0-11.651075-6.041298-10.572272-12.514117 1.941846-12.082596 6.68858-22.223346 14.240203-30.206489 10.14075-11.435314 23.73367-17.045091 40.778761-17.045091 15.534766 0.431521 28.048883 4.746734 37.758112 13.37716z" p-id="5401"></path><path d="M848.813968 546.521702c9.709229 7.983144 14.671724 18.986936 14.671723 32.795618 0 12.082596-4.099452 21.576064-12.298356 28.264644-4.746734 3.883692-4.530973 11.219553 0.431521 14.887484 2.589128 1.941846 4.746734 3.883692 6.904341 6.257059 5.394016 6.041298 8.198904 14.024442 8.198904 23.73367 0 15.103245-5.178255 27.401601-15.534766 36.89507-11.003793 9.709229-25.243995 14.671724-42.720607 14.671723-16.613569 0-29.990729-4.315213-40.131479-12.729878-8.846186-7.551622-14.671724-17.692373-17.476612-30.42225-1.294564-5.825537 3.23641-11.435314 9.061947-11.435314h6.041298c4.530973 0 8.198904 3.23641 9.277707 7.767383 1.510324 7.335862 4.746734 13.161399 9.709229 17.692373 6.041298 5.394016 13.59292 8.198904 23.302149 8.198904 10.356511 0 18.771176-3.020649 25.243995-9.061947 5.609777-5.609777 8.414665-12.298357 8.414665-20.2815 0-9.493468-3.020649-16.613569-8.846186-21.144543-5.394016-4.530973-13.59292-6.90434-24.380952-6.90434h-2.589128c-5.178255 0-9.277708-4.099452-9.277708-9.277708s4.099452-9.277708 9.277708-9.277708h2.373367c9.924989 0 17.476612-2.157606 22.654867-6.688579 5.178255-4.315213 7.767383-10.788032 7.767383-18.986937 0-7.983144-2.373367-14.240202-7.120101-18.771175-4.962495-4.315213-12.298357-6.68858-22.223346-6.68858-9.924989 0-17.476612 2.589128-23.086388 7.551622-4.315213 3.883692-7.120101 9.061947-8.630426 15.534766-1.078803 4.099452-4.746734 6.90434-9.061947 6.904341h-5.394016c-6.041298 0-10.572271-5.825537-9.061947-11.651075 2.804888-10.572271 8.198904-19.418458 15.966288-26.107037 9.924989-9.061947 22.870628-13.37716 39.052676-13.37716 16.613569-0.215761 29.774968 3.667931 39.484197 11.651074z" p-id="5402"></path></svg>