<?xml version="1.0" standalone="no"?><!DOCTYPE svg PUBLIC "-//W3C//DTD SVG 1.1//EN" "http://www.w3.org/Graphics/SVG/1.1/DTD/svg11.dtd"><svg t="1565416684687" class="icon" viewBox="0 0 1024 1024" version="1.1" xmlns="http://www.w3.org/2000/svg" p-id="3212" xmlns:xlink="http://www.w3.org/1999/xlink" width="200" height="200"><defs><style type="text/css"></style></defs><path d="M383.935 479.92H191.968c-52.98 0-95.984-43.004-95.984-95.985V191.968c0-52.98 43.003-95.984 95.984-95.984h191.967c52.98 0 95.984 43.003 95.984 95.984v191.967c0 52.98-43.003 95.984-95.984 95.984zM191.968 159.972c-17.546 0-31.995 14.45-31.995 31.995v191.967c0 17.546 14.45 31.995 31.995 31.995h191.967c17.546 0 31.995-14.45 31.995-31.995V191.968c0-17.546-14.45-31.995-31.995-31.995H191.968z m191.967 768.043H191.968c-52.98 0-95.984-43.003-95.984-95.984v-192.14c0-52.98 43.003-95.983 95.984-95.983h191.967c52.98 0 95.984 43.003 95.984 95.983V831.86c0 52.98-43.003 96.156-95.984 96.156zM191.968 607.898c-17.546 0-31.995 14.277-31.995 31.994V831.86c0 17.718 14.45 31.995 31.995 31.995h191.967c17.546 0 31.995-14.277 31.995-31.995V639.892c0-17.717-14.45-31.994-31.995-31.994H191.968z m640.064 320.118h-192.14c-52.98 0-95.983-43.003-95.983-95.984v-63.989c0-52.98 43.003-95.984 95.983-95.984H831.86c52.98 0 95.984 43.004 95.984 95.984v63.99c0.172 52.808-43.003 95.983-95.812 95.983z m-192.14-191.968c-17.717 0-31.994 14.278-31.994 31.995v63.99c0 17.717 14.277 31.994 31.994 31.994H831.86c17.718 0 31.995-14.277 31.995-31.995v-63.989c0-17.717-14.277-31.995-31.995-31.995H639.892z m192.14-128.15h-192.14c-52.98 0-95.983-43.004-95.983-95.984V191.968c0-52.98 43.003-95.984 95.983-95.984H831.86c52.98 0 95.984 43.003 95.984 95.984v319.946c0.172 52.98-43.003 95.984-95.812 95.984z m-192.14-447.925c-17.717 0-31.994 14.45-31.994 31.995v319.946c0 17.545 14.277 31.995 31.994 31.995H831.86c17.718 0 31.995-14.45 31.995-31.995V191.968c0-17.546-14.277-31.995-31.995-31.995H639.892z" p-id="3213"></path></svg>