<?xml version="1.0" standalone="no"?><!DOCTYPE svg PUBLIC "-//W3C//DTD SVG 1.1//EN" "http://www.w3.org/Graphics/SVG/1.1/DTD/svg11.dtd"><svg t="1555815855190" class="icon" style="" viewBox="0 0 1030 1024" version="1.1" xmlns="http://www.w3.org/2000/svg" p-id="17269" xmlns:xlink="http://www.w3.org/1999/xlink" width="201.171875" height="200"><defs><style type="text/css"></style></defs><path d="M980.910621 146.476617L813.352935 314.034303l-97.741984-97.741984L883.168637 48.734633C760.991158-28.06264 600.415042-14.099499 492.255247 90.624055c-76.797273 76.797273-104.723554 185.011612-87.269629 282.753595L20.944711 757.364014c-27.926281 27.926281-27.926281 69.815703 0 97.741984l146.612975 146.612975c27.926281 27.926281 69.815703 27.926281 97.741984 0l383.986364-384.040908c97.741984 20.944711 205.901779-10.472355 282.753595-87.269628 111.705124-101.232769 125.668265-261.808885 48.870992-383.986364zM886.659423 488.573559c-69.815703 69.815703-167.557686 87.269628-254.827315 55.907106L223.410248 956.338766 76.797273 809.725791 488.709918 397.813146c-31.362523-87.269628-10.472355-185.011612 55.907106-254.827315 59.288804-59.343347 139.576862-80.288058 216.374134-66.324917l-139.631405 139.631405L820.334505 415.267071l143.176734-143.176733c6.98157 76.797273-17.453926 157.085331-76.797273 216.428678z m0 0" p-id="17270"></path></svg>