<?xml version="1.0" standalone="no"?><!DOCTYPE svg PUBLIC "-//W3C//DTD SVG 1.1//EN" "http://www.w3.org/Graphics/SVG/1.1/DTD/svg11.dtd"><svg t="1564195323983" class="icon" viewBox="0 0 1024 1024" version="1.1" xmlns="http://www.w3.org/2000/svg" p-id="4910" xmlns:xlink="http://www.w3.org/1999/xlink" width="300" height="300"><defs><style type="text/css"></style></defs><path d="M888.832 37.376H144.384C74.24 37.376 23.04 107.008 23.04 167.424v176.64h982.016V153.6c0.512-60.416-50.688-116.224-116.224-116.224z m-716.8 227.84c-28.16 0-46.592-18.432-46.592-46.592s18.432-46.592 46.592-46.592 46.592 18.432 46.592 46.592-18.432 46.592-46.592 46.592z m190.976 0c-28.16 0-46.592-18.432-46.592-46.592s18.432-46.592 46.592-46.592 46.592 18.432 46.592 46.592-18.432 46.592-46.592 46.592zM23.04 884.224c0 65.024 51.2 116.224 116.224 116.224h744.96c65.024 0 116.224-51.2 116.224-116.224v-176.64H23.04v176.64z m344.576-97.792c28.16 0 46.592 18.432 46.592 46.592s-18.432 46.592-46.592 46.592-46.592-18.432-46.592-46.592c0-27.648 18.944-46.592 46.592-46.592z m-190.976 0c28.16 0 46.592 18.432 46.592 46.592s-23.04 46.592-46.592 46.592c-28.16 0-46.592-18.432-46.592-46.592 0.512-27.648 18.944-46.592 46.592-46.592zM23.04 660.992h977.408V391.168H23.04v269.824z m344.576-195.584c28.16 0 46.592 18.432 46.592 46.592s-23.04 46.592-46.592 46.592c-28.16 0-46.592-18.432-46.592-46.592s18.944-46.592 46.592-46.592z m-190.976 0c28.16 0 46.592 18.432 46.592 46.592s-23.04 46.592-46.592 46.592c-28.16 0-46.592-18.432-46.592-46.592s18.944-46.592 46.592-46.592z" p-id="4911"></path></svg>