<?xml version="1.0" standalone="no"?><!DOCTYPE svg PUBLIC "-//W3C//DTD SVG 1.1//EN" "http://www.w3.org/Graphics/SVG/1.1/DTD/svg11.dtd"><svg t="1560411964341" class="icon" style="" viewBox="0 0 1024 1024" version="1.1" xmlns="http://www.w3.org/2000/svg" p-id="1739" xmlns:xlink="http://www.w3.org/1999/xlink" width="200" height="200"><defs><style type="text/css"></style></defs><path d="M341.94944 468.8128c-21.61152-18.97472-48.71168-28.46208-81.28512-28.46208H199.30112v215.05024h59.14112c34.05824 0 61.89568-10.04032 83.5072-30.12608 21.61152-20.08576 32.41472-46.7968 32.41472-80.10752 0-31.92832-10.8032-57.37984-32.41472-76.35456z m-19.712 139.66848c-15.31904 14.90432-36.62848 22.3488-63.93344 22.3488h-31.23712V465.06496h32.4864c25.63584 0 46.32064 6.75328 62.05952 20.26496 15.73376 13.5168 23.6032 33.6896 23.6032 60.52864-0.00512 26.84928-7.66464 47.72352-22.97856 62.62272zM380.33408 465.06496h61.78304v190.34112h27.904V465.06496h62.05952v-24.70912H380.33408zM696.73472 571.83232c0 41.6512-17.44896 62.47936-52.34688 62.47936-36.09088 0-54.13888-21.51936-54.13888-64.55296V440.35584h-27.77088v130.64704c0 58.68032 26.4192 88.0128 79.26272 88.0128 55.16288 0 82.74432-30.40256 82.74432-91.2128V440.35584h-27.76576l0.01536 131.47648z" p-id="1740"></path><path d="M967.68 651.93472v-14.42304a25.63072 25.63072 0 0 0 8.53504-19.06176V511.25248A25.63584 25.63584 0 0 0 967.68 492.19584V333.44c0-1.8432-0.3584-3.58912-0.90112-5.25824 5.7088-4.69504 9.43616-11.72992 9.43616-19.70176V238.93504c0-14.13632-11.45344-25.6-25.6-25.6s-25.6 11.46368-25.6 25.6V308.48c0 7.81312 3.57376 14.72512 9.09312 19.42016a17.12128 17.12128 0 0 0-0.98816 5.53984v158.76096a25.62048 25.62048 0 0 0-8.52992 19.05152v107.19744c0 7.5776 3.31776 14.336 8.52992 19.06176v14.00832h-113.85856V304.22528a29.0304 29.0304 0 0 0-29.0304-29.02528h-159.1552v-32.62976a29.02528 29.02528 0 0 0-29.02528-29.02528H344.58624a29.02528 29.02528 0 0 0-29.02528 29.02528v32.62976H129.77664a29.02528 29.02528 0 0 0-29.02528 29.02528V378.88H93.2352a14.51008 14.51008 0 0 0-14.51008 14.51008v10.65472a14.51008 14.51008 0 0 0 14.51008 14.51008h7.51616v20.00896c-12.29312 0.86016-22.02624 10.99776-22.02624 23.51104v81.28c0 12.51328 9.73312 22.65088 22.02624 23.51616v23.02976H93.2352a14.5152 14.5152 0 0 0-14.51008 14.5152v10.6496a14.5152 14.5152 0 0 0 14.51008 14.5152h7.51616v167.84384a29.02528 29.02528 0 0 0 29.02528 29.02528h185.78432v30.49472a29.02528 29.02528 0 0 0 29.02528 29.02528h257.46432a29.02528 29.02528 0 0 0 29.02528-29.02528v-30.49472h159.1552a29.0304 29.0304 0 0 0 29.0304-29.02528V727.04h143.71328a29.02528 29.02528 0 0 0 29.02528-29.02528v-17.46944a29.01504 29.01504 0 0 0-24.32-28.61056z m-388.58752-410.4448a12.8 12.8 0 1 1 0 25.6 12.8 12.8 0 0 1 0-25.6z m-128.84992-4.5824a16.5376 16.5376 0 0 1 12.76416 6.08256h17.55648c7.81824 0 14.16192 5.39648 14.16192 12.05248s-6.33856 12.05248-14.16192 12.05248h-19.04128c-0.52224 0-1.00864-0.08192-1.51552-0.128a16.45568 16.45568 0 0 1-9.76384 3.2256 16.64 16.64 0 1 1 0-33.28512z m-82.70336 4.5824a12.8 12.8 0 1 1 0 25.6 12.8 12.8 0 0 1 0-25.6z m0 616.54016a12.8 12.8 0 1 1 0-25.6 12.8 12.8 0 0 1 0 25.6z m113.01888-1.49504H463.0016a16.52224 16.52224 0 0 1-12.76416 6.08256 16.64 16.64 0 1 1 0-33.28c3.6608 0 7.01952 1.2032 9.76384 3.22048 0.50688-0.0512 0.99328-0.12288 1.51552-0.12288h19.04128c7.81824 0 14.16192 5.39648 14.16192 12.05248 0 6.65088-6.33856 12.04736-14.16192 12.04736z m98.5344 1.49504a12.8 12.8 0 1 1 0-25.6 12.8 12.8 0 0 1 0 25.6z m214.02624-211.63008v126.27968a29.0304 29.0304 0 0 1-29.0304 29.02528H155.90912a29.02528 29.02528 0 0 1-29.02528-29.02528v-146.048a14.464 14.464 0 0 0 5.81632-11.56096v-10.6496c0-4.74112-2.304-8.89856-5.81632-11.55584V415.60064a14.4384 14.4384 0 0 0 5.81632-11.55072v-10.65472a14.4384 14.4384 0 0 0-5.81632-11.55072V328.97536a29.02528 29.02528 0 0 1 29.02528-29.02528h608.18944a29.02528 29.02528 0 0 1 29.02528 29.02528l-0.00512 317.42464z" p-id="1741"></path></svg>