<?xml version="1.0" standalone="no"?><!DOCTYPE svg PUBLIC "-//W3C//DTD SVG 1.1//EN" "http://www.w3.org/Graphics/SVG/1.1/DTD/svg11.dtd"><svg t="1564472157159" class="icon" viewBox="0 0 1024 1024" version="1.1" xmlns="http://www.w3.org/2000/svg" p-id="1767" xmlns:xlink="http://www.w3.org/1999/xlink" width="200" height="200"><defs><style type="text/css"></style></defs><path d="M1009.152 14.848c-9.216-9.216-22.016-14.848-34.816-14.848l-321.024 2.048c-27.648 0-49.664 22.016-49.664 51.712 0 27.648 22.016 49.664 51.712 49.664h189.44l-219.648 218.112c-9.216 9.216-14.848 22.016-14.848 35.328 0.512 27.648 22.528 49.664 49.664 49.664 12.8 0 25.6-5.632 34.816-14.848L921.6 162.304v194.048c0 27.648 22.016 49.664 49.664 49.664s49.664-22.016 49.664-49.664V49.664c3.072-12.8-2.56-25.6-11.776-34.816zM370.688 920.576H180.736l219.648-218.112c9.216-9.216 14.848-22.016 14.848-35.328 0-12.8-5.632-26.112-14.848-35.328-18.432-18.432-51.712-18.432-72.192 0l-226.816 227.328V665.6c0-27.648-22.016-49.664-49.664-49.664S2.048 637.952 2.048 665.6v306.688c0.512 27.648 22.528 49.664 49.664 49.664l321.024-2.048c27.648 0 49.664-22.016 49.664-51.712 0-23.552-22.016-47.616-51.712-47.616zM464.896 0h-271.36C95.744 0 14.848 73.728 2.048 166.4 0 169.984 0 175.616 0 179.2v293.888c0 27.648 22.016 49.664 49.664 49.664s49.664-22.016 49.664-49.664V192c0-51.712 40.448-90.624 92.16-90.624h271.36c27.648 0 51.712-22.016 51.712-51.712S492.544 0 464.896 0z m509.44 499.2c-27.648 0-49.664 22.016-49.664 49.664v282.624c0 51.712-40.448 90.624-92.16 90.624h-276.992c-33.28 0-58.88 33.28-48.128 66.56 7.168 20.48 27.648 35.328 49.664 35.328h274.944c97.792 0 177.152-72.192 189.952-166.4 2.048-3.584 2.048-9.216 2.048-12.8v-295.936c0-27.648-22.016-49.664-49.664-49.664z" p-id="1768"></path></svg>