<?xml version="1.0" standalone="no"?><!DOCTYPE svg PUBLIC "-//W3C//DTD SVG 1.1//EN" "http://www.w3.org/Graphics/SVG/1.1/DTD/svg11.dtd"><svg t="1565407970338" class="icon" viewBox="0 0 1024 1024" version="1.1" xmlns="http://www.w3.org/2000/svg" p-id="7174" xmlns:xlink="http://www.w3.org/1999/xlink" width="200" height="200"><defs><style type="text/css"></style></defs><path d="M179.712 989.696c-37.888 0-73.216-14.336-99.84-40.96-27.136-26.624-41.984-62.464-41.984-100.352L34.304 180.736c0-37.888 14.336-73.728 40.96-100.864s62.464-41.984 100.352-41.984l667.648-3.584h1.024c37.888 0 73.216 14.336 99.84 40.96 27.136 26.624 41.984 62.464 41.984 100.352l3.584 667.648c0 37.888-14.336 73.728-40.96 100.864-26.624 27.136-62.464 41.984-100.352 41.984l-667.648 3.584h-1.024zM844.288 97.792c-0.512 0-0.512 0.512 0 0l-668.16 4.096c-20.992 0-40.448 8.192-55.296 23.04s-22.528 34.816-22.528 55.296l3.584 667.648c0 20.992 8.192 40.448 23.04 55.296 14.848 14.848 34.304 22.528 55.296 22.528h0.512l667.648-3.584c20.992 0 40.448-8.192 55.296-23.04s22.528-34.816 22.528-55.296l-3.584-667.648c0-20.992-8.192-40.448-23.04-55.296-15.36-14.848-34.816-23.04-55.296-23.04z" p-id="7175"></path><path d="M820.224 705.536c-10.752-13.824-31.232-16.384-45.056-5.632l-78.336 60.928V497.664c0-17.92-14.336-31.744-31.744-31.744-17.92 0-31.744 14.336-31.744 31.744v263.68l-78.336-60.928c-13.824-10.752-33.792-8.192-45.056 5.632-10.752 13.824-8.192 33.792 5.632 45.056l129.536 101.376c5.12 4.096 10.752 6.144 16.896 6.656H669.184c6.144-0.512 11.776-2.56 16.896-6.656l129.536-101.376c12.8-11.264 15.36-31.744 4.608-45.568zM79.872 327.68h859.648v64H79.872zM84.992 625.152h290.304v64H84.992z" p-id="7176"></path><path d="M631.808 60.416h64v290.304h-64zM337.408 58.88h64v873.984H337.408z" p-id="7177"></path></svg>