<?xml version="1.0" standalone="no"?><!DOCTYPE svg PUBLIC "-//W3C//DTD SVG 1.1//EN" "http://www.w3.org/Graphics/SVG/1.1/DTD/svg11.dtd"><svg t="1565432695153" class="icon" viewBox="0 0 1024 1024" version="1.1" xmlns="http://www.w3.org/2000/svg" p-id="15184" xmlns:xlink="http://www.w3.org/1999/xlink" width="200" height="200"><defs><style type="text/css"></style></defs><path d="M263.4 125.5c0-6.5 6.5-13.1 13-13.1h378.1c3.9 0 7.8 0 12.9 1.3v202.7h200.7c1.3 5.2 1.3 30.1 1.3 34v257.7l50.5 31.4V351.8c0-35.3-20.7-104.6-44-129.5L763.2 108.5C738.6 83.6 690.7 64 655.7 64H276.4c-35 0-63.4 28.8-63.4 64.1v128.2h50.5V125.5zM717.9 136c3.9 2.6 6.5 5.2 9.1 7.8l112.6 113.8c2.6 2.6 5.2 5.2 7.8 9.2H717.9V136zM960 714.1L725.6 576.7v91.6H596.2v91.6h129.5v90.3L960 714.1z m-363.8-153h207.2v-60.2H596.2v60.2z m274.5 334.8h-1.3c0 6.5-6.5 13.1-13 13.1h-580c-6.5 0-13-6.5-13-13.1v-43.2h-50.5v43.2c0 35.3 28.5 64.1 63.4 64.1h581.4c35 0 63.4-28.8 63.4-64.1V788.6l-50.5 30.1v77.2z m-67.4-514H596.2V442h207.2v-60.1z m-265.4-66.8H64v478.7h473.9V315.1zM365.7 691.8v-1.3L301 593.7l-28.5 44.5H301v53.6H156l106.2-157L169 393.5h77.7l55.7 82.4 55.7-82.4h77.7l-93.2 141.3 106.2 157h-83.1z" p-id="15185"></path></svg>