<?xml version="1.0" standalone="no"?><!DOCTYPE svg PUBLIC "-//W3C//DTD SVG 1.1//EN" "http://www.w3.org/Graphics/SVG/1.1/DTD/svg11.dtd"><svg t="1563279700034" class="icon" viewBox="0 0 1117 1024" version="1.1" xmlns="http://www.w3.org/2000/svg" p-id="2430" xmlns:xlink="http://www.w3.org/1999/xlink" width="218.1640625" height="200"><defs><style type="text/css"></style></defs><path d="M985.739636 450.56a39.749818 39.749818 0 0 0-28.206545-11.729455H598.481455V319.301818h26.530909a93.090909 93.090909 0 0 0 93.090909-93.090909V93.090909a93.090909 93.090909 0 0 0-93.090909-93.090909H492.078545a93.090909 93.090909 0 0 0-93.090909 93.090909v133.026909a93.090909 93.090909 0 0 0 93.090909 93.090909h26.53091v119.621818H159.557818a39.749818 39.749818 0 0 0-39.842909 39.936v159.557819H93.090909a93.090909 93.090909 0 0 0-93.090909 93.090909v133.026909a93.090909 93.090909 0 0 0 93.090909 93.090909h133.026909a93.090909 93.090909 0 0 0 93.090909-93.090909V731.415273a93.090909 93.090909 0 0 0-93.090909-93.090909h-26.624V518.609455H518.516364v119.714909h-26.530909a93.090909 93.090909 0 0 0-93.09091 93.090909v133.026909a93.090909 93.090909 0 0 0 93.09091 93.090909h132.933818a93.090909 93.090909 0 0 0 93.090909-93.090909V731.415273a93.090909 93.090909 0 0 0-93.090909-93.090909H598.574545V518.609455h319.115637v119.714909h-26.624a93.090909 93.090909 0 0 0-93.090909 93.090909v133.026909a93.090909 93.090909 0 0 0 93.090909 93.090909H1024a93.090909 93.090909 0 0 0 93.090909-93.090909V731.415273a93.090909 93.090909 0 0 0-93.090909-93.090909h-26.624V478.766545a39.749818 39.749818 0 0 0-11.636364-28.206545z" p-id="2431"></path></svg>