<?xml version="1.0" standalone="no"?><!DOCTYPE svg PUBLIC "-//W3C//DTD SVG 1.1//EN" "http://www.w3.org/Graphics/SVG/1.1/DTD/svg11.dtd"><svg t="1565229620019" class="icon" viewBox="0 0 1078 1024" version="1.1" xmlns="http://www.w3.org/2000/svg" p-id="3015" xmlns:xlink="http://www.w3.org/1999/xlink" width="210.546875" height="200"><defs><style type="text/css"></style></defs><path d="M559.369 62c-165.79 0-312.633 90-388.422 227.369L62 180.42v307.895h307.895L237.263 355.684c61.579-118.42 180-198.948 322.105-198.948 194.21 0 355.262 161.054 355.262 355.264S753.578 867.263 559.368 867.263c-156.316 0-284.211-99.473-336.316-236.842h-99.473C175.684 819.895 350.947 962 559.369 962c251.052 0 450-203.684 450-450s-203.685-450-450-450z m-71.053 236.842v241.58l222.631 132.63 37.895-61.578L559.368 497.79V298.842h-71.052z" p-id="3016"></path></svg>