<?xml version="1.0" standalone="no"?><!DOCTYPE svg PUBLIC "-//W3C//DTD SVG 1.1//EN" "http://www.w3.org/Graphics/SVG/1.1/DTD/svg11.dtd"><svg t="1565432635635" class="icon" viewBox="0 0 1024 1024" version="1.1" xmlns="http://www.w3.org/2000/svg" p-id="13437" xmlns:xlink="http://www.w3.org/1999/xlink" width="200" height="200"><defs><style type="text/css"></style></defs><path d="M940.295954 0h-856.593318C37.482182 0 0 37.482182 0 83.702636v856.593318c0 46.223275 37.482182 83.704046 83.702636 83.704046h856.593318c46.223275 0 83.704046-37.480771 83.704046-83.704046v-856.593318c-0.071937-46.148517-37.552708-83.630698-83.704046-83.702636zM363.768854 575.010773c-17.981517-13.287252-43.042516-10.471822-57.558345 6.427814l-220.197415 288.951187v-784.448617h852.117686v213.48044l-17.692357-15.742995c-17.984338-13.288663-43.043926-10.471822-57.559755 6.426403L531.752445 724.431707 363.768854 575.010773z m536.219614 153.737175c21.077644 0 27.866556 3.988997 7.86515 24.042591l-108.765045 108.74953c-36.510322 36.527249-36.061772 36.42569-72.504388 0l-108.75235-108.765045c-20.001405-20.033847-15.397414-24.022844 7.948372-24.022844h53.944551V596.290124c0-27.436342 22.252621-49.674858 49.672037-49.674857h66.228911c27.419416 0 49.674858 22.238516 49.674858 49.674857v132.460645h54.687904v-0.002821z m77.772741 198.690967c0 27.418005-22.254032 49.673447-49.674858 49.673447h-331.151612c-27.418005 0-49.672037-22.252621-49.672036-49.673447v-66.228912h33.115161v66.228912c0 9.124759 7.418011 16.558286 16.556875 16.558286h331.151612c9.140275 0 16.556875-7.434937 16.556876-16.558286v-66.228912h33.117982v66.228912z" p-id="13438"></path><path d="M336.975716 186.687303c-71.9303 0-130.210839 58.136665-130.210839 130.066965 0 71.786425 58.352477 130.066965 130.210839 130.066964s130.21225-58.28054 130.21225-130.066964-58.28195-130.066965-130.21225-130.066965z" p-id="13439"></path></svg>