<?xml version="1.0" standalone="no"?><!DOCTYPE svg PUBLIC "-//W3C//DTD SVG 1.1//EN" "http://www.w3.org/Graphics/SVG/1.1/DTD/svg11.dtd"><svg t="1565407950534" class="icon" viewBox="0 0 1024 1024" version="1.1" xmlns="http://www.w3.org/2000/svg" p-id="6336" xmlns:xlink="http://www.w3.org/1999/xlink" width="200" height="200"><defs><style type="text/css"></style></defs><path d="M826.368 976.384c7.168 7.168 14.848 10.752 25.6 10.752s18.432-3.584 25.6-10.752l102.4-102.4c14.848-14.848 14.848-36.352 0-51.2-14.848-14.848-36.352-14.848-51.2 0l-40.448 40.448v-226.816c0-18.432-14.848-36.352-36.352-36.352-22.016 0-36.352 14.848-36.352 36.352v226.816l-44.032-44.032c-14.848-14.848-36.352-14.848-51.2 0-14.848 14.848-14.848 36.352 0 51.2l105.984 105.984zM182.784 296.448c0 58.368 47.616 105.984 105.984 105.984 44.032 0 87.552-25.6 105.984-66.048 18.432-40.448 7.168-87.552-22.016-120.832-32.768-32.768-83.968-40.448-124.416-25.6-39.936 18.432-65.536 62.464-65.536 106.496z m73.216 0c0-10.752 3.584-18.432 10.752-25.6 3.584-10.752 14.848-14.848 25.6-14.848 18.432 0 36.352 14.848 36.352 32.768 0 18.432-14.848 36.352-32.768 40.448-21.504 0-39.936-14.848-39.936-32.768z" p-id="6337"></path><path d="M950.784 36.352H73.216C32.768 36.352 0 69.632 0 109.568v731.648c0 40.448 32.768 73.216 73.216 73.216h585.216c19.968 0 36.352-16.384 36.352-36.352 0-19.968-16.384-36.352-36.352-36.352H109.568c-22.016 0-36.352-18.432-36.352-36.352V146.432c0-18.432 14.848-36.352 36.352-36.352h804.352c22.016 0 36.352 18.432 36.352 36.352v438.784c0 19.968 16.384 36.352 36.352 36.352 19.968 0 36.352-16.384 36.352-36.352V109.568c1.024-39.936-31.744-73.216-72.192-73.216z m0 0" p-id="6338"></path><path d="M135.168 742.4c14.848 14.848 36.352 14.848 51.2 0l153.6-153.6 128 128c3.584 3.584 3.584 3.584 7.168 3.584 14.848 7.168 29.184 7.168 44.032-3.584l361.984-361.984c14.848-14.848 14.848-36.352 0-51.2-14.848-14.848-36.352-14.848-51.2 0L493.568 640l-128-131.584-3.584-3.584c-14.848-10.752-32.768-10.752-47.616 3.584L131.584 691.2c-10.752 14.848-10.752 36.352 3.584 51.2z m0 0" p-id="6339"></path></svg>