<?xml version="1.0" standalone="no"?><!DOCTYPE svg PUBLIC "-//W3C//DTD SVG 1.1//EN" "http://www.w3.org/Graphics/SVG/1.1/DTD/svg11.dtd"><svg t="1564472448599" class="icon" viewBox="0 0 1024 1024" version="1.1" xmlns="http://www.w3.org/2000/svg" p-id="3118" xmlns:xlink="http://www.w3.org/1999/xlink" width="200" height="200"><defs><style type="text/css"></style></defs><path d="M864.6 298.6H160c-34.9 0-63.4-28.5-63.4-63.4s28.5-63.4 63.4-63.4h704.6c34.9 0 63.4 28.5 63.4 63.4s-28.5 63.4-63.4 63.4zM928 512.4c0-34.9-28.5-63.4-63.4-63.4H160c-34.9 0-63.4 28.5-63.4 63.4s28.5 63.4 63.4 63.4h704.6c34.9 0 63.4-28.6 63.4-63.4zM928 789.5c0-34.9-28.5-63.4-63.4-63.4H160c-34.9 0-63.4 28.5-63.4 63.4s28.5 63.4 63.4 63.4h704.6c34.9 0 63.4-28.5 63.4-63.4z" p-id="3119"></path></svg>