<?xml version="1.0" standalone="no"?><!DOCTYPE svg PUBLIC "-//W3C//DTD SVG 1.1//EN" "http://www.w3.org/Graphics/SVG/1.1/DTD/svg11.dtd"><svg t="1564369464945" class="icon" viewBox="0 0 1147 1024" version="1.1" xmlns="http://www.w3.org/2000/svg" p-id="3055" xmlns:xlink="http://www.w3.org/1999/xlink" width="224.0234375" height="200"><defs><style type="text/css"></style></defs><path d="M327.214119 902.40027L327.214119 343.032637C327.214119 320.726565 309.601006 303.569725 288.474558 303.569725L172.247274 303.569725C151.120826 303.569725 133.507713 322.440741 133.507713 343.032637L133.507713 902.40027 327.214119 902.40027 327.214119 902.40027ZM573.749545 902.40027L573.749545 102.815083C573.749545 80.507336 556.141591 61.631293 535.008264 61.631293L418.780981 61.631293C397.654532 61.631293 380.041419 80.507336 380.041419 102.815083L380.041419 902.40027 573.749545 902.40027 573.749545 902.40027ZM820.283251 902.40027L820.283251 548.933157C820.283251 526.627086 802.677017 507.756069 781.54369 507.756069L665.323284 507.756069C644.189958 507.756069 626.575124 526.627086 626.575124 548.933157L626.575124 902.40027 820.283251 902.40027 820.283251 902.40027ZM1066.816958 902.40027L1066.816958 343.032637C1066.816958 320.726565 1049.210724 303.569725 1028.077396 303.569725L911.856992 303.569725C890.723664 303.569725 873.11743 322.440741 873.11743 343.032637L873.11743 902.40027 1066.816958 902.40027 1066.816958 902.40027ZM1102.038024 953.874143L80.680413 953.874143 80.680413 44.474452C80.680413 25.598408 64.826548 10.157419 45.459347 10.157419 26.086986 10.157419 10.24 25.598408 10.24 44.474452L10.24 1022.509885 1102.038024 1022.509885C1121.412104 1022.509885 1137.25737 1007.068895 1137.25737 988.192852 1137.25737 969.315133 1121.412104 953.874143 1102.038024 953.874143L1102.038024 953.874143Z" p-id="3056"></path></svg>