<?xml version="1.0" standalone="no"?><!DOCTYPE svg PUBLIC "-//W3C//DTD SVG 1.1//EN" "http://www.w3.org/Graphics/SVG/1.1/DTD/svg11.dtd"><svg t="1566302107798" class="icon" viewBox="0 0 1024 1024" version="1.1" xmlns="http://www.w3.org/2000/svg" p-id="16166" xmlns:xlink="http://www.w3.org/1999/xlink" width="200" height="200"><defs><style type="text/css"></style></defs><path d="M958.464 270.336h-70.656l-13.312-90.112c0-38.912-31.744-70.656-70.656-70.656H417.792c-38.912 0-70.656 31.744-70.656 70.656l-25.6 90.112h-83.968c0-19.456-19.456-38.912-38.912-38.912h-70.656c-19.456 0-38.912 19.456-38.912 38.912H70.656C31.744 270.336 0 303.104 0 348.16v495.616c0 38.912 31.744 70.656 70.656 70.656H952.32c38.912 0 70.656-31.744 70.656-70.656V348.16c6.144-45.056-25.6-77.824-64.512-77.824z m-791.552 122.88c-31.744 0-51.2-19.456-51.2-45.056 0-25.6 25.6-51.2 51.2-51.2s51.2 19.456 51.2 51.2c1.024 25.6-25.6 45.056-51.2 45.056zM611.328 849.92c-154.624 0-276.48-121.856-276.48-276.48s121.856-276.48 276.48-276.48 276.48 121.856 276.48 276.48-121.856 276.48-276.48 276.48z m0-476.16C501.76 373.76 411.648 463.872 411.648 573.44S501.76 772.096 611.328 772.096s199.68-90.112 199.68-199.68-90.112-198.656-199.68-198.656z m0 0" p-id="16167"></path></svg>